# AST/ASF file generated using VICON BodyLanguage
# -----------------------------------------------
:version 1.10
:name VICON
:units
  mass 1.0
  length 0.45
  angle deg
:documentation
   .ast/.asf automatically generated from VICON data using
   VICON BodyBuilder and BodyLanguage model FoxedUp or BRILLIANT.MOD
:root
   order TX TY TZ RX RY RZ
   axis XYZ
   position 0 0 0  
   orientation 0 0 0 
:bonedata
  begin
     id 1 
     name lhipjoint
     direction 0.576517 -0.752066 0.319413 
     length 2.45433 
     axis 0 0 0  XYZ
  end
  begin
     id 2 
     name lfemur
     direction 0.34202 -0.939693 0  
     length 7.54459  
     axis 0 0 20  XYZ
    dof rx ry rz
    limits (-160.0 20.0)
           (-70.0 70.0)
           (-60.0 70.0)
  end
  begin
     id 3 
     name ltibia
     direction 0.34202 -0.939693 0   
     length 7.73986   
     axis 0 0 20   XYZ
    dof rx
    limits (-10.0 170.0)
  end
  begin
     id 4 
     name lfoot
     direction 0.090693 -0.249177 0.964202   
     length 2.28437   
     axis -90 7.62852e-016 20   XYZ
    dof rx rz
    limits (-45.0 90.0)
           (-70.0 20.0)
  end
  begin
     id 5 
     name ltoes
     direction 1.5356e-011 -4.21928e-011 1   
     length 1.14243   
     axis -90 7.62852e-016 20   XYZ
    dof rx
    limits (-90.0 20.0)
  end
  begin
     id 6 
     name rhipjoint
     direction -0.573937 -0.753736 0.320122   
     length 2.44889  
     axis 0 0 0  XYZ 
  end
  begin
     id 7 
     name rfemur
     direction -0.34202 -0.939693 0   
     length 7.50166   
     axis 0 0 -20   XYZ
    dof rx ry rz
    limits (-160.0 20.0)
           (-70.0 70.0)
           (-70.0 60.0)
  end
  begin
     id 8 
     name rtibia
     direction -0.34202 -0.939693 0   
     length 7.54266   
     axis 0 0 -20   XYZ
    dof rx
    limits (-10.0 170.0)
 end
 begin
     id 9 
     name rfoot
     direction -0.114017 -0.31326 0.942798   
     length 2.34212  
     axis -90 -7.62852e-016 -20   XYZ
    dof rx rz
    limits (-45.0 90.0)
           (-20.0 70.0)
  end
  begin
     id 10 
     name rtoes
     direction -1.53557e-011 -4.21867e-011 1   
     length 1.16246   
     axis -90 -7.62852e-016 -20   XYZ
    dof rx
    limits (-90.0 20.0)
  end
  begin
     id 11 
     name lowerback
     direction -0.0228371 0.999155 -0.034167   
     length 2.0537   
     axis 0 0 0   XYZ
    dof rx ry rz
    limits (-20.0 45.0)
           (-30.0 30.0)
           (-30.0 30.0)
  end
  begin
     id 12 
     name upperback
     direction 0.0198981 0.999794 0.00389455   
     length 2.05302   
     axis 0 0 0   XYZ
    dof rx ry rz
    limits (-20.0 45.0)
           (-30.0 30.0)
           (-30.0 30.0)
  end
  begin
     id 13 
     name thorax
     direction 0.0304566 0.99935 0.0192987   
     length 2.05315   
     axis 0 0 0   XYZ
    dof rx ry rz
    limits (-20.0 45.0)
           (-30.0 30.0)
           (-30.0 30.0)
  end
  begin
     id 14 
     name lowerneck
     direction -0.0196762 0.99417 0.106017   
     length 1.82056   
     axis 0 0 0   XYZ
    dof rx ry rz
    limits (-20.0 45.0)
           (-30.0 30.0)
           (-30.0 30.0)
  end
  begin
     id 15 
     name upperneck
     direction 0.00517787 0.9802 -0.197944   
     length 1.83835   
     axis 0 0 0   XYZ
    dof rx ry rz
    limits (-20.0 45.0)
           (-30.0 30.0)
           (-30.0 30.0)
  end
  begin
     id 16
     name head
     direction 0.00211419 0.996945 -0.078081  
     length 1.85629  
     axis 0 0 0   XYZ
    dof rx ry rz
    limits (-20.0 45.0)
           (-30.0 30.0)
           (-30.0 30.0)
  end
  begin
     id 17 
     name lclavicle
     direction 0.930001 0.365811 -0.0357824  
     length 3.81961  
     axis 0 0 0   XYZ
    dof ry rz
    limits (-20.0 10.0)
           (0.0 20.0)
  end
  begin
     id 18 
     name lhumerus
     direction 1 -4.48968e-011 -3.06644e-027   
     length 5.14507   
     axis 180 -30 -90   XYZ
    dof rx ry rz
    limits (-60.0 90.0)
           (-90.0 90.0)
           (-90.0 90.0)
  end
  begin
     id 19
     name lradius
     direction 1 -4.48965e-011 9.06925e-028   
     length 3.50646   
     axis 180 -30 -90   XYZ
    dof rx
    limits (-10.0 170.0)
  end
  begin
     id 20
     name lwrist
     direction 1 -4.48957e-011 1.03922e-027   
     length 1.75323   
     axis -2.56395e-016 90 90   XYZ
    dof ry
    limits (-180.0 0.0)
 end
  begin
     id 21 
     name lhand
     direction 1 -4.48967e-011 2.08017e-027   
     length 0.629969   
     axis -1.32723e-015 90 90   XYZ
    dof rx rz
    limits (-90.0 90.0)
           (-45.0 45.0)
  end
  begin
     id 22 
     name lfingers
     direction 1 -4.49089e-011 4.20095e-027   
     length 0.507897   
     axis -2.6545e-015 90 90   XYZ
    dof rx
    limits (0.0 90.0)
  end
  begin
     id 23
     name lthumb
     direction 0.707107 -6.35001e-011 0.707107   
     length 0.729241   
     axis -90 45 5.05613e-014   XYZ
    dof rx rz
    limits (-45.0 45.0)
           (-45.0 45.0)
  end
  begin
     id 24 
     name rclavicle
     direction -0.881882 0.464123 -0.0829113   
     length 3.47515  
     axis 0 0 0   XYZ 
    dof ry rz
    limits (-10.0 20.0)
           (-20.0 0.0)
  end
  begin
     id 25 
     name rhumerus
     direction -1 -4.48961e-011 -1.55672e-027  
     length 5.232   
     axis 180 30 90   XYZ
    dof rx ry rz
    limits (-90.0 60.0)
           (-90.0 90.0)
           (-90.0 90.0)
  end
  begin
     id 26 
     name rradius
     direction -1 -4.48963e-011 6.18178e-029   
     length 3.65641   
     axis 180 30 90   XYZ
    dof rx
    limits (-10.0 170.0)
  end
  begin
     id 27 
     name rwrist
     direction -1 -4.48982e-011 1.04136e-027   
     length 1.8282   
     axis -2.56395e-016 -90 -90   XYZ
    dof ry
    limits (-180.0 0.0)
  end
  begin
     id 28
     name rhand
     direction -1 -4.48929e-011 2.07378e-027   
     length 0.656807   
     axis -1.32723e-015 -90 -90   XYZ
    dof rx rz
    limits (-90.0 90.0)
           (-45.0 45.0)
  end
  begin
     id 29
     name rfingers
     direction -1 -4.489e-011 4.13816e-027   
     length 0.529535   
     axis -2.6545e-015 -90 -90   XYZ
    dof rx
    limits (0.0 90.0)
  end
  begin
     id 30
     name rthumb
     direction -0.707107 -6.34843e-011 0.707107   
     length 0.760309   
     axis -90 -45 -5.05613e-014   XYZ
    dof rx rz
    limits (-45.0 45.0)
           (-45.0 45.0)
  end
:hierarchy
  begin
    root lhipjoint rhipjoint lowerback
    lhipjoint lfemur
    lfemur ltibia
    ltibia lfoot
    lfoot ltoes
    rhipjoint rfemur
    rfemur rtibia
    rtibia rfoot
    rfoot rtoes
    lowerback upperback
    upperback thorax
    thorax lowerneck lclavicle rclavicle
    lowerneck upperneck
    upperneck head
    lclavicle lhumerus
    lhumerus lradius
    lradius lwrist
    lwrist lhand lthumb
    lhand lfingers
    rclavicle rhumerus
    rhumerus rradius
    rradius rwrist
    rwrist rhand rthumb
    rhand rfingers
  end

#!OML:ASF H:\ManfredETheater\Project 1\Capture day 1\Session 1\subject.ASF
:FULLY-SPECIFIED
:DEGREES
16
root 7.50132 16.6441 -28.456 17.1795 7.86228 0.858667
lowerback 15.0514 0.451395 2.91407
upperback 1.10821 1.21374 1.59969
thorax -7.24478 0.523769 -0.201914
lowerneck -15.6341 -5.59531 -5.41142
upperneck 6.02125 -6.62719 2.40882
head 4.5741 -3.24402 1.04561
rclavicle 8.34896e-015 -4.05521e-014
rhumerus -48.3652 10.7889 -86.63
rradius 114.318
rwrist -6.15624
rhand -28.47 11.3407
rfingers 7.12502
rthumb -1.83984 -18.6311
lclavicle 8.34896e-015 -4.05521e-014
lhumerus -70.7954 -6.65783 90.2369
lradius 99.6162
lwrist 20.11
lhand -16.8416 -9.48895
lfingers 7.12502
lthumb 9.38823 20.282
rfemur -3.74241 -0.692556 24.0935
rtibia 46.4073
rfoot -3.62688 -3.02511
rtoes -40.7255
lfemur -65.8384 5.1568 -13.4007
ltibia 75.731
lfoot -8.58441 -7.83543
ltoes -13.1908
17
root 7.51301 16.6373 -27.8748 16.6722 7.77654 0.985359
lowerback 14.8091 0.725067 2.5122
upperback 1.27737 1.48663 1.51427
thorax -6.92959 0.672119 -0.118121
lowerneck -15.4598 -5.857 -5.60376
upperneck 6.48525 -6.98099 2.64999
head 4.72047 -3.40977 1.11505
rclavicle 6.75868e-015 -3.10104e-014
rhumerus -48.4501 10.9067 -86.2321
rradius 115.207
rwrist -6.0807
rhand -28.6606 11.6139
rfingers 7.12502
rthumb -2.02396 -18.3562
lclavicle 6.75868e-015 -3.10104e-014
lhumerus -71.9855 -6.39294 90.1312
lradius 100.67
lwrist 19.8794
lhand -16.5721 -9.70287
lfingers 7.12502
lthumb 9.64822 20.0562
rfemur -2.11053 0.0504856 23.9611
rtibia 46.8073
rfoot -0.204591 -1.9818
rtoes -38.0261
lfemur -65.5316 4.08987 -12.1208
ltibia 71.1704
lfoot -7.59809 -9.28399
ltoes -16.2338
18
root 7.52185 16.6212 -27.2947 16.1482 7.71248 1.1659
lowerback 14.6079 0.958736 2.02653
upperback 1.44651 1.69852 1.43199
thorax -6.64434 0.791889 0.0308036
lowerneck -15.2739 -6.07318 -5.7766
upperneck 6.93397 -7.2803 2.88499
head 4.85879 -3.54834 1.18466
rclavicle -1.19271e-014 -3.97569e-015
rhumerus -48.5687 10.8722 -85.9021
rradius 115.627
rwrist -6.3346
rhand -28.8801 11.6093
rfingers 7.12502
rthumb -2.23588 -18.3587
lclavicle -1.19271e-014 -3.97569e-015
lhumerus -72.9687 -6.01621 89.9883
lradius 101.674
lwrist 19.6651
lhand -16.3811 -9.91459
lfingers 7.12502
lthumb 9.83248 19.8358
rfemur -0.815668 0.766162 23.888
rtibia 47.8071
rfoot 2.2901 -1.75472
rtoes -35.8043
lfemur -64.8778 2.78523 -10.6146
ltibia 66.4392
lfoot -6.18728 -10.5071
ltoes -18.9489
19
root 7.52786 16.5935 -26.7172 15.6167 7.67076 1.36159
lowerback 14.4466 1.15102 1.50794
upperback 1.60923 1.85567 1.35135
thorax -6.39312 0.884154 0.211903
lowerneck -15.0823 -6.24589 -5.92202
upperneck 7.36084 -7.52978 3.12374
head 4.9877 -3.66115 1.25611
rclavicle 3.97569e-016 -9.54166e-015
rhumerus -48.7426 10.6675 -85.6624
rradius 115.591
rwrist -6.87389
rhand -29.0424 11.3316
rfingers 7.12502
rthumb -2.39266 -18.6348
lclavicle 3.97569e-016 -9.54166e-015
lhumerus -73.7315 -5.57471 89.813
lradius 102.639
lwrist 19.4245
lhand -16.2417 -10.1077
lfingers 7.12502
lthumb 9.96694 19.6363
rfemur 0.0932995 1.38672 23.8988
rtibia 49.4725
rfoot 3.79141 -2.35959
rtoes -34.2584
lfemur -63.9528 1.28371 -8.88688
ltibia 61.6738
lfoot -4.48837 -11.3826
ltoes -21.1692
20
root 7.531 16.552 -26.1438 15.0807 7.64919 1.53902
lowerback 14.3383 1.30161 1.00017
upperback 1.75998 1.96405 1.27078
thorax -6.18637 0.950567 0.396353
lowerneck -14.8897 -6.37692 -6.03814
upperneck 7.7595 -7.73299 3.37902
head 5.10616 -3.74895 1.33295
rclavicle 3.69739e-014 -1.66979e-014
rhumerus -48.9862 10.29 -85.5258
rradius 115.12
rwrist -7.57741
rhand -29.0888 10.8165
rfingers 7.12502
rthumb -2.43746 -19.1494
lclavicle 3.69739e-014 -1.66979e-014
lhumerus -74.266 -5.11053 89.6123
lradius 103.566
lwrist 19.1232
lhand -16.1407 -10.2579
lfingers 7.12502
lthumb 10.0644 19.4814
rfemur 0.598335 1.85036 24.0021
rtibia 51.8157
rfoot 4.43594 -3.76617
rtoes -33.3624
lfemur -62.8328 -0.355819 -6.97159
ltibia 57.0319
lfoot -2.65675 -11.8374
ltoes -22.7785
21
root 7.5321 16.4963 -25.5744 14.5505 7.61681 1.67636
lowerback 14.2642 1.41835 0.53301
upperback 1.90067 2.03657 1.18283
thorax -6.0091 0.996999 0.556751
lowerneck -14.7224 -6.46929 -6.11842
upperneck 8.13805 -7.89399 3.65422
head 5.22064 -3.81295 1.41417
rclavicle -7.95139e-016 -2.38542e-015
rhumerus -49.3051 9.74316 -85.4984
rradius 114.246
rwrist -8.29541
rhand -29.0411 10.101
rfingers 7.12502
rthumb -2.39137 -19.8654
lclavicle -7.95139e-016 -2.38542e-015
lhumerus -74.5645 -4.6584 89.398
lradius 104.456
lwrist 18.7433
lhand -16.0755 -10.3455
lfingers 7.12502
lthumb 10.1273 19.3908
rfemur 0.684771 2.13003 24.1697
rtibia 54.7966
rfoot 4.45688 -5.84456
rtoes -32.862
lfemur -61.5918 -2.0368 -4.94884
ltibia 52.6979
lfoot -0.920715 -11.8965
ltoes -23.8492
22
root 7.53219 16.427 -25.009 14.0229 7.54773 1.7691
lowerback 14.2251 1.50632 0.120982
upperback 2.0347 2.08076 1.08075
thorax -5.85645 1.02709 0.676015
lowerneck -14.5852 -6.52543 -6.15971
upperneck 8.4928 -8.01592 3.94792
head 5.33051 -3.85449 1.49856
rclavicle -3.93594e-014 -1.66979e-014
rhumerus -49.7009 9.03977 -85.5772
rradius 113.002
rwrist -8.94121
rhand -28.8843 9.26412
rfingers 7.12502
rthumb -2.23997 -20.7039
lclavicle -3.93594e-014 -1.66979e-014
lhumerus -74.6283 -4.24283 89.1863
lradius 105.3
lwrist 18.3057
lhand -16.0419 -10.405
lfingers 7.12502
lthumb 10.1597 19.3297
rfemur 0.383141 2.21312 24.3605
rtibia 58.325
rfoot 4.09183 -8.37202
rtoes -32.2348
lfemur -60.2895 -3.65165 -2.94076
ltibia 48.8807
lfoot 0.443714 -11.6097
ltoes -24.5203
23
root 7.5323 16.3464 -24.4474 13.5048 7.4095 1.84042
lowerback 14.2149 1.57108 -0.247306
upperback 2.16143 2.10056 0.951171
thorax -5.72494 1.0432 0.745675
lowerneck -14.4794 -6.54372 -6.15793
upperneck 8.8205 -8.09613 4.2528
head 5.43407 -3.87251 1.58362
rclavicle 2.22639e-014 -2.3059e-014
rhumerus -50.1701 8.20291 -85.7517
rradius 111.431
rwrist -9.4125
rhand -28.6533 8.38168
rfingers 7.12502
rthumb -2.0169 -21.5885
lclavicle 2.22639e-014 -2.3059e-014
lhumerus -74.4582 -3.87474 88.9945
lradius 106.083
lwrist 17.8704
lhand -16.0429 -10.4204
lfingers 7.12502
lthumb 10.1588 19.3144
rfemur -0.295897 2.10213 24.5078
rtibia 62.2864
rfoot 3.46681 -11.038
rtoes -31.3627
lfemur -58.9827 -5.08352 -1.10833
ltibia 45.8147
lfoot 1.19849 -11.0781
ltoes -24.9487
24
root 7.53355 16.2558 -23.8906 12.9932 7.17505 1.92992
lowerback 14.2475 1.61637 -0.605551
upperback 2.27925 2.09474 0.786534
thorax -5.62443 1.04561 0.776523
lowerneck -14.3949 -6.51907 -6.11633
upperneck 9.11769 -8.125 4.5504
head 5.52717 -3.86387 1.66549
rclavicle -1.55052e-014 3.18055e-014
rhumerus -50.7068 7.27915 -86.0032
rradius 109.576
rwrist -9.72482
rhand -28.4006 7.51228
rfingers 7.12502
rthumb -1.77279 -22.4601
lclavicle -1.55052e-014 3.18055e-014
lhumerus -74.0698 -3.55849 88.8499
lradius 106.8
lwrist 17.5247
lhand -16.0954 -10.4045
lfingers 7.12502
lthumb 10.1082 19.3327
rfemur -1.31056 1.82328 24.5403
rtibia 66.5575
rfoot 2.61907 -13.5244
rtoes -30.1552
lfemur -57.7052 -6.21047 0.368955
ltibia 43.7335
lfoot 1.14482 -10.5298
ltoes -25.3801
25
root 7.53601 16.1581 -23.3404 12.47 6.83348 2.06623
lowerback 14.365 1.6438 -0.976838
upperback 2.39651 2.06088 0.587372
thorax -5.56952 1.03376 0.781561
lowerneck -14.3392 -6.45025 -6.04743
upperneck 9.37329 -8.09553 4.82879
head 5.60687 -3.82645 1.74306
rclavicle -1.45113e-014 7.95139e-015
rhumerus -51.2817 6.30495 -86.3021
rradius 107.473
rwrist -9.93227
rhand -28.1741 6.7302
rfingers 7.12502
rthumb -1.55409 -23.2439
lclavicle -1.45113e-014 7.95139e-015
lhumerus -73.4539 -3.29535 88.7792
lradius 107.441
lwrist 17.3519
lhand -16.2016 -10.3793
lfingers 7.12502
lthumb 10.0056 19.3629
rfemur -2.61527 1.41388 24.4233
rtibia 71.022
rfoot 1.5792 -15.5922
rtoes -28.6489
lfemur -56.4883 -6.89379 1.3135
ltibia 42.8069
lfoot 0.250736 -10.2031
ltoes -25.9198
26
root 7.53832 16.0559 -22.8 11.909 6.39852 2.30074
lowerback 14.6323 1.65272 -1.41943
upperback 2.51762 1.987 0.356468
thorax -5.59253 1.00313 0.797298
lowerneck -14.2942 -6.33553 -5.96346
upperneck 9.55969 -8.00057 5.07449
head 5.66079 -3.75887 1.81559
rclavicle -4.49253e-014 -5.56597e-015
rhumerus -51.8711 5.30739 -86.6126
rradius 105.157
rwrist -10.1145
rhand -27.9961 6.06222
rfingers 7.12502
rthumb -1.38217 -23.913
lclavicle -4.49253e-014 -5.56597e-015
lhumerus -72.6086 -3.08635 88.8089
lradius 108.006
lwrist 17.3971
lhand -16.3536 -10.3352
lfingers 7.12502
lthumb 9.85905 19.4139
rfemur -4.16222 0.890487 24.1146
rtibia 75.5788
rfoot 0.403362 -17.1221
rtoes -27.2241
lfemur -55.3429 -7.08828 1.63312
ltibia 43.0665
lfoot -1.4079 -10.2467
ltoes -26.6372
27
root 7.53822 15.951 -22.2721 11.2922 5.89016 2.72752
lowerback 15.1089 1.64599 -2.04282
upperback 2.65037 1.85424 0.0848886
thorax -5.7192 0.946881 0.878963
lowerneck -14.2572 -6.17317 -5.8815
upperneck 9.65508 -7.83283 5.28705
head 5.68169 -3.65873 1.8865
rclavicle -9.14409e-015 1.19271e-015
rhumerus -52.4521 4.29832 -86.901
rradius 102.665
rwrist -10.3354
rhand -27.8751 5.4995
rfingers 7.12502
rthumb -1.26529 -24.4765
lclavicle -9.14409e-015 1.19271e-015
lhumerus -71.52 -2.93528 88.9484
lradius 108.489
lwrist 17.6521
lhand -16.5282 -10.2754
lfingers 7.12502
lthumb 9.69059 19.4817
rfemur -5.91773 0.24871 23.5234
rtibia 80.145
rfoot -0.90261 -18.0314
rtoes -26.169
lfemur -54.2558 -6.86151 1.32093
ltibia 44.3695
lfoot -3.60879 -10.7274
ltoes -27.4065
